# xmcd
#
# Track frame offsets:
#	150
#	14662
#	72155
#	92805
#	122158
#	151000
#	165804
#
# Disc length: 2441 seconds
#
# Revision: 3
# Processed by: cddbd v1.5.2PL0 Copyright (c) Steve Scherf et al.
# Submitted via: EasyCDDAExtractor 11.1.0.1
#
DISCID=4b098707
DTITLE=Breakout - Ogień
DYEAR=1973
DGENRE=Blues
TTITLE0=Nie Zapalaj Swiatla
TTITLE1=Wielki Ogien
TTITLE2=Liscie Zabral Wiatr
TTITLE3=Na Dnie Moich Oczu
TTITLE4=Masz To Dzis
TTITLE5=Czarno-Czarny Film
TTITLE6=Dales Mi Pierscien
EXTD=
EXTT0=
EXTT1=
EXTT2=
EXTT3=
EXTT4=
EXTT5=
EXTT6=
PLAYORDER=
